<?xml version="1.0" encoding="utf-8"?>
<!-- Svg Vector Icons : http://www.onlinewebfonts.com/icon -->
<!DOCTYPE svg PUBLIC "-//W3C//DTD SVG 1.1//EN" "http://www.w3.org/Graphics/SVG/1.1/DTD/svg11.dtd">
<svg version="1.1" xmlns="http://www.w3.org/2000/svg" xmlns:xlink="http://www.w3.org/1999/xlink" x="0px" y="0px" viewBox="0 0 1000 1000" enable-background="new 0 0 1000 1000" xml:space="preserve">
<metadata> Svg Vector Icons : http://www.onlinewebfonts.com/icon </metadata>
<g><g transform="translate(0.000000,512.000000) scale(0.100000,-0.100000)"><path d="M1707.8,4990.6C1258,4893,835,4466.1,741.2,4014.4c-24.9-114.8-28.7-710.1-28.7-4157.3v-4025.3H406.2H100v-306.3v-306.3h3981.2h3981.2v306.3v306.3h-306.3H7450v1839.4v1841.3l76.6-11.5c44-5.8,99.5-24.9,126.3-42.1c101.5-67,103.4-78.5,103.4-1163.7c0-836.4,5.7-1018.3,28.7-1114c118.7-455.5,599.1-798.2,1010.6-721.6c357.9,67,675.7,365.6,769.5,721.6c24.9,99.5,28.7,413.4,28.7,2444.3v2331.3h153.1H9900V3488v1531.3h-583.8c-321.6,0-583.8-1.9-583.8-5.7c0-1.9-82.3-413.4-181.8-913l-181.8-907.3V2575v-618.2H8675h306.3V-391.8c0-2199.3-1.9-2354.3-34.5-2417.5c-42.1-88-137.8-134-271.8-134s-229.7,45.9-271.8,134c-30.6,61.3-34.5,153.1-34.5,1071.9c0,842.2-5.7,1024-28.7,1119.7c-93.8,356-411.5,654.6-769.5,721.6l-120.6,23v1875.8c0,1569.5-5.7,1898.8-28.7,2011.7c-95.7,457.5-518.7,880.5-976.2,976.2C6251.8,5030.8,1897.3,5030.8,1707.8,4990.6z M6514,4353.2c116.8-57.4,210.5-149.3,268-264.1l45.9-93.8l5.7-3315.2l3.8-3317.1H4081.2H1325l3.8,3317.1l5.7,3315.2l44,88.1c76.6,155,214.4,266,377.1,306.3c32.5,7.6,1094.8,11.5,2363.9,11.5l2306.4-3.8L6514,4353.2z M9287.5,3488v-918.7h-153.1h-153.1v302.4c0,292.9,3.8,319.7,114.8,874.7c141.7,708.2,128.2,660.4,162.7,660.4C9283.7,4406.8,9287.5,4286.2,9287.5,3488z M6837.5-3708.8v-459.4H4081.2H1325v459.4v459.4h2756.2h2756.3V-3708.8z"/><path d="M1937.5,2263V731.8h2143.7H6225V2263v1531.2H4081.2H1937.5V2263z M5612.5,2263v-918.8H4081.2H2550V2263v918.7h1531.2h1531.3V2263z"/><path d="M3162.5,2263v-306.3h918.7H5000V2263v306.3h-918.8h-918.7V2263z"/><path d="M1937.5,119.3V-187H2550h612.5v306.3v306.3H2550h-612.5V119.3z"/><path d="M3468.7,119.3V-187h612.5h612.5v306.3v306.3h-612.5h-612.5V119.3z"/><path d="M5000,119.3V-187h612.5H6225v306.3v306.3h-612.5H5000V119.3z"/></g></g>
</svg>