<?xml version="1.0" encoding="utf-8"?>
<!-- Svg Vector Icons : http://www.onlinewebfonts.com/icon -->
<!DOCTYPE svg PUBLIC "-//W3C//DTD SVG 1.1//EN" "http://www.w3.org/Graphics/SVG/1.1/DTD/svg11.dtd">
<svg version="1.1" xmlns="http://www.w3.org/2000/svg" xmlns:xlink="http://www.w3.org/1999/xlink" x="0px" y="0px" viewBox="0 0 1000 1000" enable-background="new 0 0 1000 1000" xml:space="preserve">
<metadata> Svg Vector Icons : http://www.onlinewebfonts.com/icon </metadata>
<g><path d="M676.3,690.9h-41.6c-32.6,41.8-80.9,67.9-131.8,67.9c-50.9,0-94.4-26.1-127-67.9h-41.6c38.1,65.5,98,108.2,168.6,108.2S638.2,756.4,676.3,690.9z"/><path d="M928.2,390.7C885.4,194,712.2,46.9,502.4,46.9c-209.8,0-387.2,147.2-431.2,343.9c-34.2,2-61.3,30.3-61.3,65v171c0,36,29.2,65.1,65.1,65.1h54.3c36,0,65.1-29.2,65.1-65.1v-171c0-32.9-24.3-60-56-64.5c44-158.9,191.3-275.7,363.9-275.7c172.6,0,316,116.8,358.7,275.7c-31.5,4.6-55.6,31.7-55.6,64.4v171c0,25.8,15,48.1,36.7,58.6c-2.9,40.5-15.3,58.7-52.2,101.7c-31.9,37.2-69.7,62.2-109.2,75.9c-10.2-15-27.8-24.4-47.2-23.1l-97.9,6.6c-29.1,2-51.1,27.4-49.2,56.7c2,29.4,27.2,51.6,56.3,49.6l97.9-6.6c26.6-1.8,47.3-23.2,49.1-49.3c45.2-16.4,88.8-45.9,125.2-88.5c38.5-45,57.4-78.4,62.9-116.7h46.9c36,0,65.1-29.2,65.1-65.1v-171C990,421,962.6,392.5,928.2,390.7z"/><path d="M434.9,470.3v-70.5c0-21-17-37.9-37.9-37.9c-21,0-37.9,17-37.9,37.9v70.5c0,21,17,37.9,37.9,37.9C418,508.3,434.9,491.3,434.9,470.3z"/><path d="M641,470.3v-70.5c0-21-17-37.9-37.9-37.9c-21,0-37.9,17-37.9,37.9v70.5c0,21,17,37.9,37.9,37.9C624,508.3,641,491.3,641,470.3z"/></g>
</svg>