<?xml version="1.0" encoding="utf-8"?>
<!-- Svg Vector Icons : http://www.onlinewebfonts.com/icon -->
<!DOCTYPE svg PUBLIC "-//W3C//DTD SVG 1.1//EN" "http://www.w3.org/Graphics/SVG/1.1/DTD/svg11.dtd">
<svg version="1.1" xmlns="http://www.w3.org/2000/svg" xmlns:xlink="http://www.w3.org/1999/xlink" x="0px" y="0px" viewBox="0 0 1000 1000" enable-background="new 0 0 1000 1000" xml:space="preserve">
<metadata> Svg Vector Icons : http://www.onlinewebfonts.com/icon </metadata>
<g><path d="M740.7,73.2L615,166.7l110.1,63.6L740.7,73.2z M495,10l-62,143.9h127.1L495,10z M921.9,250.7l-155.6,18.2L829.8,379L921.9,250.7z M230.3,274.9L73.2,259.4L166.7,385L230.3,274.9z M846.1,560.1L990,495l-143.9-62V560.1z M375.7,327.5c122.1,0,255.7,9.6,363.2,32.7c19.3,4.2,32.6,22.5,30,39c-9.7,62.5-32.9,123.3-79.3,162.5c-32.2,27.2-124.2,11.9-153.8-18.5c-36.4-37.4-37.8-73.1-42.1-123.6c-3.1-36.4-34.6-38.2-46.3-1.3c-14.5,45.8-17.1,92.9-60.3,121.3c-32.7,21.5-117.9,19.1-143-12c-24.4-30.3-35.2-72.8-39-115.5c-8.2,27.8-12.7,57.2-12.7,87.7c0,170,137.8,307.8,307.8,307.8c170,0,307.8-137.8,307.8-307.8c0-170-137.8-307.8-307.8-307.8c-107.8,0-202.6,55.4-257.5,139.3c1.5-0.1,2.9-0.2,4.5-0.3C287,328.8,330.6,327.5,375.7,327.5z M379,170.2l-128.3-92l18.2,155.6L379,170.2z M621,829.8l128.3,92l-18.3-155.6L621,829.8z M505,990l62-143.9H439.9L505,990z M153.9,439.9L10,505l143.9,62V439.9z M769.7,725.1l157.1,15.6L833.3,615L769.7,725.1z M78.2,749.3l155.6-18.2L170.2,621L78.2,749.3z M259.3,926.8L385,833.3l-110.1-63.6L259.3,926.8z"/></g>
</svg>