<?xml version="1.0" encoding="utf-8"?>
<!-- Svg Vector Icons : http://www.onlinewebfonts.com/icon -->
<!DOCTYPE svg PUBLIC "-//W3C//DTD SVG 1.1//EN" "http://www.w3.org/Graphics/SVG/1.1/DTD/svg11.dtd">
<svg version="1.1" xmlns="http://www.w3.org/2000/svg" xmlns:xlink="http://www.w3.org/1999/xlink" x="0px" y="0px" viewBox="0 0 1000 1000" enable-background="new 0 0 1000 1000" xml:space="preserve">
<metadata> Svg Vector Icons : http://www.onlinewebfonts.com/icon </metadata>
<g><g transform="translate(0.000000,512.000000) scale(0.100000,-0.100000)"><path d="M4683.2,5017.8c-493.1-48-794.3-109.4-1197.2-241.8c-343.4-113.2-830.8-347.3-1133.9-546.8C1129.8,3427.2,322.1,2145.6,124.5,693.1c-32.6-234.1-32.6-917.1,0-1151.2c124.7-911.3,487.3-1761.3,1055.3-2473.1c310.8-387.6,744.5-780.9,1172.3-1062.9c295.5-193.8,802-437.4,1145.4-550.6c523.8-170.8,942.1-237.9,1502.3-237.9c216.8,0,472,9.6,566,23c1124.3,159.2,2104.8,642.8,2887.6,1423.7C9234.2-2553.2,9717.7-1572.8,9877-448.5c30.7,222.6,30.7,909.4,0,1132c-132.4,934.4-489.3,1774.8-1061,2484.7c-788.6,982.4-1930.2,1634.7-3173.5,1815.1C5452.6,5010.1,4832.8,5033.1,4683.2,5017.8z M5719.3,4359.7c924.8-157.3,1688.4-548.7,2331.2-1191.5c654.3-652.3,1047.6-1437.1,1203-2388.7c48-299.3,48-1007.3,0-1314.3c-147.7-947.8-546.8-1744-1203-2398.3c-654.2-656.2-1450.5-1055.3-2398.3-1203c-307-47.9-1015-47.9-1314.3,0c-951.7,155.4-1736.4,548.8-2388.7,1203c-654.3,652.3-1047.6,1433.2-1203,2388.7c-48,297.4-48,1005.4,0,1314.3C984,2297.1,1941.4,3525.1,3342,4096.8c356.9,145.8,715.7,237.9,1133.9,289.7C4775.3,4424.9,5418,4411.5,5719.3,4359.7z"/><path d="M4637.1,3780.3c-1254.8-132.4-2392.6-944-2956.6-2110.5c-479.7-997.7-479.7-2106.7,0-3102.5c374.1-777.1,972.8-1377.6,1755.6-1761.3c1001.5-491.2,2120.1-491.2,3127.4,0c779,379.9,1368,968.9,1747.9,1747.9c414.4,850,479.7,1776.7,190,2672.7c-82.5,251.4-274.4,644.7-425.9,876.8C7311.7,3262.2,5966.7,3918.4,4637.1,3780.3z M5613.7,3131.8c1251-257.1,2158.5-1166.6,2400.2-2406c19.2-103.6,36.5-213,36.5-243.7v-57.6H4999.8H1949.1v57.6c0,30.7,17.3,143.9,38.4,253.3c182.3,944,788.6,1738.3,1638.5,2145.1c307,145.8,621.7,236,1038,295.5C4813.7,3197,5437.2,3168.2,5613.7,3131.8z M3230.8-346.8c90.2-324.2,266.7-606.3,537.2-861.5c241.7-228.3,544.9-397.2,826.9-462.4l97.9-21.1v-621.6v-619.7h-57.6c-30.7,0-140.1,17.3-243.7,36.5c-1101.3,214.9-1974.3,982.4-2308.1,2026.1c-63.3,201.5-134.3,527.6-134.3,623.6v57.6h619.7h617.8L3230.8-346.8z M6181.6-250.8c-5.8-34.5-46-134.3-90.2-222.6c-195.7-397.2-604.4-637-1091.7-637c-487.3,0-896,237.9-1091.7,635.1c-42.2,88.2-84.4,189.9-90.2,224.5l-11.5,61.4h1193.4h1195.3L6181.6-250.8z M8050.4-247c0-95.9-71-422.1-134.3-623.6c-289.7-911.4-1016.9-1638.5-1928.2-1928.2c-201.5-63.3-527.6-134.3-623.6-134.3h-57.6v619.7v621.6l97.8,21.1c316.6,74.8,596.7,237.9,871.1,512.3C6550-884,6713.1-603.9,6787.9-287.3l21.1,97.8h621.7h619.7V-247z"/></g></g>
</svg>