<svg xmlns="http://www.w3.org/2000/svg" width="26.25" height="32" viewBox="0 0 26.25 32">
  <path id="Path_647" data-name="Path 647" d="M9.89,7.6a3.283,3.283,0,1,1,4.643,0A3.287,3.287,0,0,1,9.89,7.6ZM7.281,24.972V10.206H4V24.972a8.206,8.206,0,0,0,8.2,8.2h9.844V29.893H12.2A4.915,4.915,0,0,1,7.281,24.972ZM30.25,31.649l-8.318-8.318H16.3V17.294a15.622,15.622,0,0,0,9.023,3.544V17.294a11.081,11.081,0,0,1-7.662-3.347l-2.3-2.543a3.52,3.52,0,0,0-1.132-.82,3.651,3.651,0,0,0-1.575-.377h-.049A3.7,3.7,0,0,0,8.922,13.9v9.433a4.915,4.915,0,0,0,4.922,4.922h8.318L27.9,34Z" transform="translate(-4 -1.995)" fill="#0a3d62"/>
</svg>
